<svg xmlns="http://www.w3.org/2000/svg" viewBox="0 0 143 143"><defs><style>.cls-1{fill:#b2afab;}.cls-2{fill:#fff;}</style></defs><g id="レイヤー_2" data-name="レイヤー 2"><g id="レイヤー_1-2" data-name="レイヤー 1"><polygon class="cls-1" points="143 71.5 124.17 49.55 122.41 21.27 122.41 21.27 93.22 18.74 71.5 0 71.5 0 49.55 18.83 22.85 19.01 22.85 19.01 18.74 49.78 0 71.5 0 71.5 18.83 93.45 22.85 123.99 22.85 123.99 49.78 124.26 71.5 143 71.5 143 93.45 124.17 121.96 122.18 121.96 122.18 124.26 93.22 143 71.5 143 71.5"/><path class="cls-2" d="M100.71,74.58A52,52,0,0,0,87.8,71.37a51.89,51.89,0,0,0,12.9-3.6c14.34-6.19,22.78-18.58,22.78-18.58S108.67,46.83,94.33,53a52.39,52.39,0,0,0-11.4,6.86,51.72,51.72,0,0,0,6.58-11.66c5.76-14.52,3-29.25,3-29.25s-12.14,8.8-17.9,23.32A52,52,0,0,0,71.37,55.2a51.89,51.89,0,0,0-3.6-12.9C61.58,28,49.19,19.52,49.19,19.52S46.83,34.33,53,48.67a52.39,52.39,0,0,0,6.86,11.4,51.72,51.72,0,0,0-11.66-6.58c-14.52-5.76-29.25-3-29.25-3s8.8,12.14,23.32,17.9A52,52,0,0,0,55.2,71.63a51.89,51.89,0,0,0-12.9,3.6C28,81.42,19.52,93.81,19.52,93.81S34.33,96.17,48.67,90a52.39,52.39,0,0,0,11.4-6.86,51.72,51.72,0,0,0-6.58,11.66c-5.76,14.52-3,29.25-3,29.25s12.14-8.8,17.9-23.32A52,52,0,0,0,71.63,87.8a51.89,51.89,0,0,0,3.6,12.9c6.19,14.34,18.58,22.78,18.58,22.78S96.17,108.67,90,94.33a52.39,52.39,0,0,0-6.86-11.4,51.72,51.72,0,0,0,11.66,6.58c14.52,5.76,29.25,3,29.25,3S115.23,80.34,100.71,74.58Z"/><circle class="cls-2" cx="71.05" cy="71.5" r="5.88"/><circle class="cls-2" cx="71.05" cy="71.5" r="5.88"/><circle class="cls-2" cx="71.05" cy="71.5" r="5.88"/><circle class="cls-2" cx="71.05" cy="71.5" r="5.88"/><circle class="cls-2" cx="71.05" cy="71.5" r="5.88"/><circle class="cls-2" cx="71.05" cy="71.5" r="5.88"/><circle class="cls-2" cx="71.05" cy="71.5" r="5.88"/><circle class="cls-2" cx="71.05" cy="71.5" r="5.88"/><circle class="cls-2" cx="108.83" cy="36.2" r="5.88"/><circle class="cls-1" cx="71.5" cy="71.5" r="5.88"/><circle class="cls-2" cx="71.05" cy="123.99" r="5.88"/><circle class="cls-2" cx="122.41" cy="71.5" r="5.88"/><circle class="cls-2" cx="108.83" cy="106.8" r="5.88"/><circle class="cls-2" cx="36.2" cy="106.8" r="5.88"/><circle class="cls-2" cx="22.4" cy="71.5" r="5.88"/><circle class="cls-2" cx="36.2" cy="36.2" r="5.88"/><circle class="cls-2" cx="71.5" cy="19.01" r="5.88"/></g></g></svg>